  <svg
          width="190"
          height="43"
          viewBox="0 0 190 43"
          fill="none"
          xmlns="http://www.w3.org/2000/svg"
        >
          <path
            d="M0.5 34.5244V12.8864H6.05527V15.502C6.58434 14.4716 7.32505 13.7054 8.27738 13.2034C9.25616 12.675 10.4069 12.4108 11.7296 12.4108C13.1316 12.4108 14.3882 12.7015 15.4992 13.2827C16.6103 13.8375 17.5097 14.6565 18.1975 15.7398C18.8059 14.7358 19.6921 13.93 20.8561 13.3223C22.0201 12.7147 23.3295 12.4108 24.7845 12.4108C26.2923 12.4108 27.6282 12.7543 28.7922 13.4412C29.9562 14.1017 30.8556 15.0528 31.4905 16.2946C32.1518 17.5099 32.4825 18.9498 32.4825 20.6143V34.5244H26.5304V21.8824C26.5304 20.5614 26.1997 19.5443 25.5384 18.8309C24.9035 18.1176 24.057 17.7609 22.9988 17.7609C21.9407 17.7609 21.0809 18.1176 20.4196 18.8309C19.7847 19.5443 19.4673 20.5614 19.4673 21.8824V34.5244H13.5152V21.8824C13.5152 20.5614 13.1845 19.5443 12.5232 18.8309C11.8883 18.1176 11.0418 17.7609 9.98364 17.7609C8.92549 17.7609 8.06575 18.1176 7.40441 18.8309C6.76952 19.5443 6.45207 20.5614 6.45207 21.8824V34.5244H0.5Z"
            fill="white"
          />
          <path
            d="M36.4697 10.9445V5H42.4218V10.9445H36.4697ZM36.4697 34.5244V12.8864H42.4218V34.5244H36.4697Z"
            fill="white"
          />
          <path
            d="M46.7867 34.5244V12.8864H52.3419V16.1361C52.8975 14.7886 53.6779 13.8771 54.6831 13.4016C55.7148 12.8996 56.892 12.6486 58.2147 12.6486H60.4764V17.8005H57.6194C56.1645 17.8005 54.9873 18.2497 54.0879 19.148C53.1885 20.0198 52.7387 21.2616 52.7387 22.8732V34.5244H46.7867Z"
            fill="white"
          />
          <path
            d="M63.2649 34.5244V5H69.217V21.0898L76.9944 12.8864H83.9385L76.0817 21.605L83.9385 34.5244H77.4706L72.2327 25.8454L69.217 29.0951V34.5244H63.2649Z"
            fill="white"
          />
          <path
            d="M95.9133 35C93.7705 35 91.813 34.5112 90.0406 33.5337C88.2946 32.5561 86.9058 31.2219 85.8741 29.531C84.8424 27.8137 84.3266 25.8719 84.3266 23.7054C84.3266 21.5126 84.8424 19.5707 85.8741 17.8798C86.9058 16.1889 88.2946 14.8547 90.0406 13.8771C91.813 12.8996 93.7705 12.4108 95.9133 12.4108C98.056 12.4108 100 12.8996 101.746 13.8771C103.519 14.8547 104.921 16.1889 105.952 17.8798C106.984 19.5707 107.5 21.5126 107.5 23.7054C107.5 25.8719 106.984 27.8137 105.952 29.531C104.921 31.2219 103.519 32.5561 101.746 33.5337C100 34.5112 98.056 35 95.9133 35ZM95.9133 29.6499C97.5534 29.6499 98.8629 29.0951 99.8417 27.9855C100.847 26.8758 101.35 25.4491 101.35 23.7054C101.35 21.9881 100.847 20.5746 99.8417 19.465C98.8629 18.3289 97.5534 17.7609 95.9133 17.7609C94.2996 17.7609 92.9902 18.3289 91.9849 19.465C90.9797 20.5746 90.4771 21.9881 90.4771 23.7054C90.4771 25.4491 90.9797 26.8758 91.9849 27.9855C92.9902 29.0951 94.2996 29.6499 95.9133 29.6499Z"
            fill="white"
          />
          <path
            fillRule="evenodd"
            clipRule="evenodd"
            d="M119.434 0.452881C116.12 0.452881 113.434 3.13917 113.434 6.45288V35.0001C113.434 38.3138 116.12 41.0001 119.434 41.0001H183.296C186.61 41.0001 189.296 38.3138 189.296 35.0001V6.45288C189.296 3.13917 186.61 0.452881 183.296 0.452881H119.434ZM162.629 28.6366C163.608 29.0312 164.67 29.2285 165.813 29.2285C166.956 29.2285 168.017 29.0312 168.997 28.6366C169.976 28.242 170.827 27.6909 171.548 26.9833C172.283 26.2621 172.854 25.4253 173.263 24.4728C173.671 23.5203 173.875 22.4862 173.875 21.3704C173.875 20.2546 173.671 19.2205 173.263 18.268C172.868 17.3155 172.303 16.4855 171.568 15.7779C170.847 15.0704 169.997 14.5193 169.017 14.1247C168.037 13.7301 166.969 13.5328 165.813 13.5328C164.656 13.5328 163.588 13.7301 162.608 14.1247C161.629 14.5193 160.771 15.0704 160.037 15.7779C159.315 16.4855 158.751 17.3155 158.342 18.268C157.948 19.2205 157.751 20.2546 157.751 21.3704C157.751 22.4862 157.955 23.5203 158.363 24.4728C158.771 25.4253 159.336 26.2621 160.057 26.9833C160.792 27.6909 161.649 28.242 162.629 28.6366ZM168.303 25.7383C167.568 26.1601 166.738 26.371 165.813 26.371C164.887 26.371 164.051 26.1601 163.302 25.7383C162.567 25.3028 161.982 24.7109 161.547 23.9626C161.125 23.2142 160.914 22.3501 160.914 21.3704C160.914 20.3907 161.125 19.5267 161.547 18.7783C161.982 18.0299 162.567 17.4448 163.302 17.023C164.051 16.6012 164.887 16.3902 165.813 16.3902C166.738 16.3902 167.568 16.6012 168.303 17.023C169.051 17.4448 169.636 18.0299 170.058 18.7783C170.494 19.5267 170.711 20.3907 170.711 21.3704C170.711 22.3501 170.494 23.2142 170.058 23.9626C169.636 24.7109 169.051 25.3028 168.303 25.7383ZM129.129 28.9835V13.7777H135.375C136.423 13.7777 137.348 13.9614 138.151 14.3288C138.967 14.6962 139.607 15.2405 140.07 15.9616C140.532 16.6828 140.763 17.5741 140.763 18.6354C140.763 19.6695 140.525 20.5472 140.049 21.2684C139.586 21.9895 138.947 22.5406 138.131 22.9216C137.328 23.289 136.409 23.4727 135.375 23.4727H132.293V28.9835H129.129ZM132.293 20.7173H135.395C136.062 20.7173 136.593 20.5268 136.988 20.1458C137.396 19.7648 137.6 19.2613 137.6 18.6354C137.6 17.9959 137.396 17.4856 136.988 17.1046C136.593 16.7236 136.062 16.5331 135.395 16.5331H132.293V20.7173ZM143.476 28.9835V13.7777H149.722C150.769 13.7777 151.695 13.9614 152.497 14.3288C153.314 14.6962 153.953 15.2405 154.416 15.9616C154.879 16.6828 155.11 17.5741 155.11 18.6354C155.11 19.6695 154.872 20.554 154.396 21.2888C153.919 22.0099 153.28 22.5542 152.477 22.9216L155.947 28.9835H152.395L149.313 23.4727H146.64V28.9835H143.476ZM146.64 20.7173H149.742C150.409 20.7173 150.939 20.5268 151.334 20.1458C151.742 19.7648 151.946 19.2613 151.946 18.6354C151.946 17.9959 151.742 17.4856 151.334 17.1046C150.939 16.7236 150.409 16.5331 149.742 16.5331H146.64V20.7173Z"
            fill="white"
          />
        </svg>