<svg width="394" height="394" viewBox="0 0 394 394" fill="none" xmlns="http://www.w3.org/2000/svg">
<g clip-path="url(#clip0_2517_562)">
<mask id="mask0_2517_562" style="mask-type:alpha" maskUnits="userSpaceOnUse" x="8" y="8" width="378" height="378">
<rect x="8" y="8" width="378" height="378" rx="80" fill="url(#paint0_linear_2517_562)"/>
</mask>
<g mask="url(#mask0_2517_562)">
<rect x="8" y="8" width="378" height="378" rx="80" fill="url(#paint1_linear_2517_562)"/>
<g style="mix-blend-mode:overlay" opacity="0.2" filter="url(#filter0_f_2517_562)">
<rect x="43.5" y="43.5" width="307" height="307" rx="66.5" stroke="url(#paint2_linear_2517_562)" stroke-width="17"/>
</g>
<rect opacity="0.3" x="17" y="17" width="360" height="360" rx="71" stroke="url(#paint3_linear_2517_562)" stroke-width="18"/>
<rect x="27.5" y="27.5" width="339" height="339" rx="60.5" stroke="url(#paint4_linear_2517_562)" stroke-opacity="0.2" stroke-width="3"/>
</g>
<g style="mix-blend-mode:overlay" filter="url(#filter1_f_2517_562)">
<path d="M291.5 183.5H210.5V102.5C210.5 98.9196 209.078 95.4858 206.546 92.9541C204.014 90.4223 200.58 89 197 89C193.42 89 189.986 90.4223 187.454 92.9541C184.922 95.4858 183.5 98.9196 183.5 102.5V183.5H102.5C98.9196 183.5 95.4858 184.922 92.9541 187.454C90.4223 189.986 89 193.42 89 197C89 200.58 90.4223 204.014 92.9541 206.546C95.4858 209.078 98.9196 210.5 102.5 210.5H183.5V291.5C183.5 295.08 184.922 298.514 187.454 301.046C189.986 303.578 193.42 305 197 305C200.58 305 204.014 303.578 206.546 301.046C209.078 298.514 210.5 295.08 210.5 291.5V210.5H291.5C295.08 210.5 298.514 209.078 301.046 206.546C303.578 204.014 305 200.58 305 197C305 193.42 303.578 189.986 301.046 187.454C298.514 184.922 295.08 183.5 291.5 183.5Z" fill="white" fill-opacity="0.4"/>
<path d="M291.5 182H212V102.5C212 98.5218 210.42 94.7064 207.607 91.8934C204.794 89.0804 200.978 87.5 197 87.5C193.022 87.5 189.206 89.0804 186.393 91.8934C183.58 94.7064 182 98.5218 182 102.5V182H102.5C98.5218 182 94.7064 183.58 91.8934 186.393C89.0804 189.206 87.5 193.022 87.5 197C87.5 200.978 89.0804 204.794 91.8934 207.607C94.7064 210.42 98.5218 212 102.5 212H182V291.5C182 295.478 183.58 299.294 186.393 302.107C189.206 304.92 193.022 306.5 197 306.5C200.978 306.5 204.794 304.92 207.607 302.107C210.42 299.294 212 295.478 212 291.5V212H291.5C295.478 212 299.294 210.42 302.107 207.607C304.92 204.794 306.5 200.978 306.5 197C306.5 193.022 304.92 189.206 302.107 186.393C299.294 183.58 295.478 182 291.5 182Z" stroke="white" stroke-width="3"/>
</g>
<g filter="url(#filter2_d_2517_562)">
<path d="M291.5 183.5H210.5V102.5C210.5 98.9196 209.078 95.4858 206.546 92.9541C204.014 90.4223 200.58 89 197 89C193.42 89 189.986 90.4223 187.454 92.9541C184.922 95.4858 183.5 98.9196 183.5 102.5V183.5H102.5C98.9196 183.5 95.4858 184.922 92.9541 187.454C90.4223 189.986 89 193.42 89 197C89 200.58 90.4223 204.014 92.9541 206.546C95.4858 209.078 98.9196 210.5 102.5 210.5H183.5V291.5C183.5 295.08 184.922 298.514 187.454 301.046C189.986 303.578 193.42 305 197 305C200.58 305 204.014 303.578 206.546 301.046C209.078 298.514 210.5 295.08 210.5 291.5V210.5H291.5C295.08 210.5 298.514 209.078 301.046 206.546C303.578 204.014 305 200.58 305 197C305 193.42 303.578 189.986 301.046 187.454C298.514 184.922 295.08 183.5 291.5 183.5Z" fill="white"/>
<path d="M291.5 182H212V102.5C212 98.5218 210.42 94.7064 207.607 91.8934C204.794 89.0804 200.978 87.5 197 87.5C193.022 87.5 189.206 89.0804 186.393 91.8934C183.58 94.7064 182 98.5218 182 102.5V182H102.5C98.5218 182 94.7064 183.58 91.8934 186.393C89.0804 189.206 87.5 193.022 87.5 197C87.5 200.978 89.0804 204.794 91.8934 207.607C94.7064 210.42 98.5218 212 102.5 212H182V291.5C182 295.478 183.58 299.294 186.393 302.107C189.206 304.92 193.022 306.5 197 306.5C200.978 306.5 204.794 304.92 207.607 302.107C210.42 299.294 212 295.478 212 291.5V212H291.5C295.478 212 299.294 210.42 302.107 207.607C304.92 204.794 306.5 200.978 306.5 197C306.5 193.022 304.92 189.206 302.107 186.393C299.294 183.58 295.478 182 291.5 182Z" stroke="white" stroke-width="3"/>
</g>
</g>
<defs>
<filter id="filter0_f_2517_562" x="25" y="25" width="344" height="344" filterUnits="userSpaceOnUse" color-interpolation-filters="sRGB">
<feFlood flood-opacity="0" result="BackgroundImageFix"/>
<feBlend mode="normal" in="SourceGraphic" in2="BackgroundImageFix" result="shape"/>
<feGaussianBlur stdDeviation="5" result="effect1_foregroundBlur_2517_562"/>
</filter>
<filter id="filter1_f_2517_562" x="32" y="32" width="330" height="330" filterUnits="userSpaceOnUse" color-interpolation-filters="sRGB">
<feFlood flood-opacity="0" result="BackgroundImageFix"/>
<feBlend mode="normal" in="SourceGraphic" in2="BackgroundImageFix" result="shape"/>
<feGaussianBlur stdDeviation="27" result="effect1_foregroundBlur_2517_562"/>
</filter>
<filter id="filter2_d_2517_562" x="6" y="41" width="382" height="382" filterUnits="userSpaceOnUse" color-interpolation-filters="sRGB">
<feFlood flood-opacity="0" result="BackgroundImageFix"/>
<feColorMatrix in="SourceAlpha" type="matrix" values="0 0 0 0 0 0 0 0 0 0 0 0 0 0 0 0 0 0 127 0" result="hardAlpha"/>
<feOffset dy="35"/>
<feGaussianBlur stdDeviation="40"/>
<feComposite in2="hardAlpha" operator="out"/>
<feColorMatrix type="matrix" values="0 0 0 0 0 0 0 0 0 0 0 0 0 0 0 0 0 0 0.25 0"/>
<feBlend mode="normal" in2="BackgroundImageFix" result="effect1_dropShadow_2517_562"/>
<feBlend mode="normal" in="SourceGraphic" in2="effect1_dropShadow_2517_562" result="shape"/>
</filter>
<linearGradient id="paint0_linear_2517_562" x1="197" y1="8" x2="197" y2="386" gradientUnits="userSpaceOnUse">
<stop stop-color="#34BB6B"/>
<stop offset="1" stop-color="#30A35F"/>
</linearGradient>
<linearGradient id="paint1_linear_2517_562" x1="197" y1="8" x2="197" y2="386" gradientUnits="userSpaceOnUse">
<stop stop-color="#34BB6B"/>
<stop offset="1" stop-color="#30A35F"/>
</linearGradient>
<linearGradient id="paint2_linear_2517_562" x1="197" y1="35" x2="197" y2="359" gradientUnits="userSpaceOnUse">
<stop stop-color="white" stop-opacity="0"/>
<stop offset="1" stop-color="white"/>
</linearGradient>
<linearGradient id="paint3_linear_2517_562" x1="197" y1="8" x2="197" y2="386" gradientUnits="userSpaceOnUse">
<stop/>
<stop offset="1" stop-opacity="0.38"/>
</linearGradient>
<linearGradient id="paint4_linear_2517_562" x1="197" y1="26" x2="197" y2="368" gradientUnits="userSpaceOnUse">
<stop stop-color="white"/>
<stop offset="1" stop-color="white" stop-opacity="0"/>
</linearGradient>
<clipPath id="clip0_2517_562">
<rect width="394" height="394" fill="white"/>
</clipPath>
</defs>
</svg>
